<svg xmlns="http://www.w3.org/2000/svg" width="512" height="512" viewBox="0 0 512 512">
  <rect width="512" height="512" rx="96" fill="#0e1116"/>
  <g fill="#f5b301">
    <circle cx="256" cy="256" r="86"/>
    <g>
      <rect x="242" y="58" width="28" height="58" rx="14"/>
      <rect x="242" y="58" width="28" height="58" rx="14" transform="rotate(30 256 256)"/>
      <rect x="242" y="58" width="28" height="58" rx="14" transform="rotate(60 256 256)"/>
      <rect x="242" y="58" width="28" height="58" rx="14" transform="rotate(90 256 256)"/>
      <rect x="242" y="58" width="28" height="58" rx="14" transform="rotate(120 256 256)"/>
      <rect x="242" y="58" width="28" height="58" rx="14" transform="rotate(150 256 256)"/>
      <rect x="242" y="58" width="28" height="58" rx="14" transform="rotate(180 256 256)"/>
      <rect x="242" y="58" width="28" height="58" rx="14" transform="rotate(210 256 256)"/>
      <rect x="242" y="58" width="28" height="58" rx="14" transform="rotate(240 256 256)"/>
      <rect x="242" y="58" width="28" height="58" rx="14" transform="rotate(270 256 256)"/>
      <rect x="242" y="58" width="28" height="58" rx="14" transform="rotate(300 256 256)"/>
      <rect x="242" y="58" width="28" height="58" rx="14" transform="rotate(330 256 256)"/>
    </g>
  </g>
</svg>
